# xmcd
#
# Track frame offsets:
#	150
#	31764
#	79324
#	149978
#	247520
#
# Disc length: 3959 seconds
#
# Revision: 1
# Processed by: cddbd v1.5.1PL0 Copyright (c) Steve Scherf et al.
# Submitted via: CDex 1.50Beta5
#
DISCID=3a0f7505
DTITLE=John Coltrane - Live In Paris
DYEAR=1900
DGENRE=Jazz
TTITLE0=トラック１
TTITLE1=トラック２
TTITLE2=トラック３
TTITLE3=トラック４
TTITLE4=トラック５
EXTD=
EXTT0=
EXTT1=
EXTT2=
EXTT3=
EXTT4=
PLAYORDER=
